<svg xmlns="http://www.w3.org/2000/svg" viewBox="0 0 405 128">
  <defs>
    <style>
      .cls-1{fill:#fff;}
      .cls-2{fill:#ae8ac4;}
      .cls-3{fill:#5b3a70;}
    </style>
  </defs>
  <g id="Layer_2" data-name="Layer 2">
    <rect class="cls-1" x="9.25" y="9.25" width="109.51" height="109.51" rx="34.14"/>
    <path class="cls-2"
      d="M91.65,28.46,75.59,38a33,33,0,0,0-22.06,0L37.46,28.46a3.91,3.91,0,0,0-5.9,3.36V69.09h0a11,11,0,0,0,22,0,11,11,0,1,1,22,0h0a11,11,0,0,0,22,0V31.82A3.91,3.91,0,0,0,91.65,28.46ZM36.84,51.27V35.33a.83.83,0,0,1,1.28-.71l9.59,6A28.66,28.66,0,0,0,36.84,51.27Zm55.55.2A28.5,28.5,0,0,0,81.52,40.66l9.6-6a.83.83,0,0,1,1.27.71Z"/>
    <path class="cls-3"
      d="M44.59,80.75h-.13l-17.1-1.52a1.5,1.5,0,1,1,.27-3l17.09,1.51a1.5,1.5,0,0,1-.13,3Z"/>
    <path class="cls-3"
      d="M35.17,92.8a1.5,1.5,0,0,1-.44-2.94l13.41-4.17A1.5,1.5,0,1,1,49,88.55L35.62,92.73A1.76,1.76,0,0,1,35.17,92.8Z"/>
    <path class="cls-3"
      d="M83.41,80.75a1.5,1.5,0,0,1-.13-3l17.09-1.51a1.5,1.5,0,1,1,.27,3L83.55,80.74Z"/>
    <path class="cls-3"
      d="M92.83,92.8a1.76,1.76,0,0,1-.45-.07L79,88.55a1.5,1.5,0,1,1,.89-2.86l13.41,4.17a1.5,1.5,0,0,1-.44,2.94Z"/>
    <path class="cls-3"
      d="M72.31,79.16a1.5,1.5,0,0,0-1.5,1.5,2.38,2.38,0,0,1-4.75,0v-3.8l4-6a1.45,1.45,0,0,0-1.2-2.25H60.24A1.45,1.45,0,0,0,59,70.82l4,6v3.8a2.38,2.38,0,0,1-4.75,0,1.5,1.5,0,0,0-3,0,5.36,5.36,0,0,0,9.25,3.7A5.32,5.32,0,0,0,68.43,86a5.38,5.38,0,0,0,5.38-5.37A1.5,1.5,0,0,0,72.31,79.16Z"/>
    <path class="cls-1"
      d="M184.13,74a19.32,19.32,0,0,1-15.54,7.36,20.5,20.5,0,0,1,0-41A19.54,19.54,0,0,1,184,47.52l-4.76,3.71a14.17,14.17,0,0,0-10.67-5c-7.94,0-14,6.56-14,14.62s6.09,14.55,14,14.55a13.62,13.62,0,0,0,10.79-5.22Z"/>
    <path class="cls-1"
      d="M195.5,80.74h-6V38.94h6V57.78c1.51-3.3,5.74-4.69,8.58-4.69,6.9,0,11,4.52,11,12.23V80.74h-6V65.67c0-4.23-2.67-6.73-6-6.73s-7.54,1.92-7.54,7.25Z"/>
    <path class="cls-1"
      d="M244.15,76.86c-1.8,3-5.74,4.46-9.1,4.46-7.31,0-13.75-5.5-13.75-14.14s6.44-14.09,13.75-14.09c3.24,0,7.24,1.33,9.1,4.4V53.67h5.91V80.74h-5.91Zm-8.41-1.33a8.32,8.32,0,1,0-8.29-8.41A8.17,8.17,0,0,0,235.74,75.53Z"/>
    <path class="cls-1" d="M266.53,53.67h5.74V58.6h-5.74V80.74h-6V58.6h-4.87V53.67h4.87V43.4h6Z"/>
    <path class="cls-1"
      d="M307.88,80.74h-8.12l-14.9-16.17V80.74h-6.21V40.79h6.21V57l12.23-16.24h7.25L289,60.68Z"/>
    <path class="cls-1"
      d="M314.37,38.94a3.77,3.77,0,1,1,0,7.54,3.78,3.78,0,1,1,0-7.54Zm3,14.73h-5.92V80.74h5.92Z"/>
    <path class="cls-1" d="M333.8,53.67h5.74V58.6H333.8V80.74h-6V58.6H323V53.67h4.87V43.4h6Z"/>
    <path class="cls-1" d="M353.28,53.67H359V58.6h-5.74V80.74h-6V58.6h-4.87V53.67h4.87V43.4h6Z"/>
    <path class="cls-1" d="M372.36,94h-6.27L372,79.47l-10.73-25.8h6.38l7.54,18.55,7.6-18.55h6.37Z"/>
  </g>
</svg>
