<svg version="1.1" xmlns="http://www.w3.org/2000/svg" xmlns:xlink="http://www.w3.org/1999/xlink" x="0px" y="0px" width="109.5px"
	 height="109.5px" viewBox="0 0 109.5 109.5" style="overflow:visible;enable-background:new 0 0 109.5 109.5;"
	 xml:space="preserve">
<style type="text/css">
	.st0{fill:#FFFFFF;}
	.st1{fill:#AE8AC4;}
	.st2{fill:#5B3A70;}
	.st3{fill:#89B9C6;}
</style>
<defs>
</defs>
<path class="st0" d="M75.4,109.5H34.1C15.4,109.5,0,94.1,0,75.4V34.1C0,15.4,15.4,0,34.1,0h41.2c18.8,0,34.1,15.4,34.1,34.1v41.2
	C109.5,94.1,94.1,109.5,75.4,109.5z"/>
<path class="st1" d="M82.4,19.2l-16.1,9.5c-3.4-1.2-7.2-1.9-11-1.9s-7.6,0.7-11,1.9l-16.1-9.5c-2.6-1.5-5.9,0.3-5.9,3.4v37.3v0v0
	c0,6.1,4.9,11,11,11c6.1,0,11-4.9,11-11c0-6.1,4.9-11,11-11s11,4.9,11,11h0c0,6.1,4.9,11,11,11c6.1,0,11-4.9,11-11V22.6
	C88.3,19.5,85,17.7,82.4,19.2z M27.6,42V26.1c0-0.7,0.7-1.1,1.3-0.7l9.6,6C33.9,33.9,30.2,37.6,27.6,42z M83.1,42.2
	c-2.6-4.5-6.3-8.3-10.9-10.8l9.6-6c0.6-0.3,1.3,0.1,1.3,0.7V42.2z"/>
<path class="st2" d="M35.3,71.5c0,0-0.1,0-0.1,0L18.1,70c-0.8-0.1-1.4-0.8-1.4-1.6c0.1-0.8,0.8-1.4,1.6-1.4l17.1,1.5
	c0.8,0.1,1.4,0.8,1.4,1.6C36.8,70.9,36.1,71.5,35.3,71.5z"/>
<path class="st2" d="M25.9,83.5c-0.6,0-1.2-0.4-1.4-1.1c-0.2-0.8,0.2-1.6,1-1.9l13.4-4.2c0.8-0.2,1.6,0.2,1.9,1
	c0.2,0.8-0.2,1.6-1,1.9l-13.4,4.2C26.2,83.5,26.1,83.5,25.9,83.5z"/>
<path class="st2" d="M74.2,71.5c-0.8,0-1.4-0.6-1.5-1.4c-0.1-0.8,0.5-1.6,1.4-1.6L91.1,67c0.8-0.1,1.6,0.5,1.6,1.4
	c0.1,0.8-0.5,1.6-1.4,1.6l-17.1,1.5C74.3,71.5,74.2,71.5,74.2,71.5z"/>
<path class="st2" d="M83.6,83.5c-0.1,0-0.3,0-0.4-0.1l-13.4-4.2c-0.8-0.2-1.2-1.1-1-1.9c0.2-0.8,1.1-1.2,1.9-1L84,80.6
	c0.8,0.2,1.2,1.1,1,1.9C84.8,83.1,84.2,83.5,83.6,83.5z"/>
<path class="st3" d="M22.3,59.8"/>
<path class="st2" d="M63.1,69.9c-0.8,0-1.5,0.7-1.5,1.5c0,1.3-1.1,2.4-2.4,2.4s-2.4-1.1-2.4-2.4v-3.8l4-6c0.6-1,0-2.2-1.2-2.2H51
	c-1.2,0-1.8,1.3-1.2,2.2l4,6v3.8c0,1.3-1.1,2.4-2.4,2.4s-2.4-1.1-2.4-2.4c0-0.8-0.7-1.5-1.5-1.5s-1.5,0.7-1.5,1.5
	c0,3,2.4,5.4,5.4,5.4c1.5,0,2.9-0.6,3.9-1.7c1,1,2.4,1.7,3.9,1.7c3,0,5.4-2.4,5.4-5.4C64.6,70.6,63.9,69.9,63.1,69.9z"/>
</svg>