<svg
  viewBox="0 0 20 20"
  width="20"
  height="20">
  <title>Call</title>
  <path
    d="m 16.898929,13.83013 c -0.566636,-0.572589 -1.938978,-1.408209 -2.604812,-1.744962 -0.86708,-0.438029 -0.938446,-0.473816 -1.619979,0.034 -0.454592,0.3389 -0.756822,0.641656 -1.288845,0.527854 C 10.853268,12.533218 9.6971604,11.891562 8.684852,10.879512 7.672544,9.8674636 6.9956499,8.6743338 6.8818232,8.1425428 6.7679964,7.6107519 7.0748646,7.3112167 7.409565,6.85422 7.8812855,6.210059 7.8456034,6.1026985 7.4423928,5.2330809 7.1280313,4.5567112 6.2705845,3.1932364 5.6975259,2.6278058 5.0845034,2.0205049 5.0845034,2.1278651 4.6894996,2.2924841 a 5.714528,5.7312467 0 0 0 -0.921675,0.4927835 c -0.5709175,0.380413 -0.8877768,0.69641 -1.1093642,1.1713001 -0.2215874,0.47489 -0.3211411,1.5882155 0.8231917,3.6731511 1.1443331,2.0849357 1.9471858,3.1510222 3.6089126,4.8129592 1.6617271,1.661936 2.9395123,2.55553 4.8074833,3.606229 2.310788,1.297985 3.197138,1.044973 3.67207,0.823095 0.474931,-0.221877 0.791434,-0.536801 1.171452,-1.10939 a 5.6767046,5.6933128 0 0 0 0.492416,-0.923297 c 0.164497,-0.394727 0.271543,-0.394727 -0.335057,-1.009185 z"
    fill="none"
    stroke="currentColor"
    stroke-miterlimit="10"
    stroke-width="1.14351"
    id="path4"/>
</svg>
